<svg id="Layer_1" data-name="Layer 1" xmlns="http://www.w3.org/2000/svg" viewBox="0 0 706 175.09"><defs><style>.cls-1{fill:#fff;}.cls-2{fill:none;stroke:#fff;stroke-miterlimit:10;stroke-width:20px;}</style></defs><title>logo_white</title><g id="Layer_6" data-name="Layer 6"><path class="cls-1" d="M267.1,117.69H221.87l-10.73,30.95H194.56L237.88,28.49h14l42.42,120.15H277.66Zm-40.52-13.62h35.9L245,52.5h-.5Z" transform="translate(-0.01 -0.02)"/><path class="cls-1" d="M397.39,132.47q-4.29,6.68-14.89,12.29T355,150.37q-20.8,0-34.41-13.78T307,100.94V76.19q0-21.87,13.12-35.65t33.8-13.78q20.05,0,31.69,10.69T396.9,64.64l-.17.5h-15.6q0-11-7.1-18.28t-20.13-7.3q-13.78,0-22.2,10.32T323.28,76V101q0,16,8.91,26.37A28.7,28.7,0,0,0,355,137.66q10.64,0,16.88-2.76a24.3,24.3,0,0,0,9.28-6.56V101.27H353.9V88.56h43.49Z" transform="translate(-0.01 -0.02)"/><path class="cls-1" d="M487.5,117.69H442.28l-10.73,30.95H415L458.29,28.49h14l42.42,120.15H498.07ZM447,104.08h35.9L465.39,52.5h-.5Z" transform="translate(-0.01 -0.02)"/><path class="cls-1" d="M561.61,117.12l2.72,10h.5l2.72-10,31-88.63h17.58L571.51,148.64H557.57L512.92,28.49h17.66Z" transform="translate(-0.01 -0.02)"/><path class="cls-1" d="M697.6,92.94H648.25v43H706v12.71H632V28.49h73.1V41.28H648.25V80.15H697.6Z" transform="translate(-0.01 -0.02)"/></g><g id="Layer_6-2" data-name="Layer 6-2"><path class="cls-2" d="M36.34,118l26.33-15.2L89,118v30.41L62.67,163.56l-26.33-15.2ZM89,57.15l26.33,15.2,26.33-15.2V26.75L115.34,11.56,89,26.75ZM10,72.36v30.4L36.34,118l26.33-15.2V72.36L36.34,57.15Zm105.33,0v30.4L141.67,118,168,102.76V72.36l-26.33-15.2ZM141.67,118l-26.33-15.2L89,118v30.41l26.33,15.18,26.33-15.2ZM89,26.75,62.67,11.56,36.34,26.75v30.4l26.33,15.2L89,57.15Z" transform="translate(-0.01 -0.02)"/></g></svg>