<svg id="Layer_1" data-name="Layer 1" xmlns="http://www.w3.org/2000/svg" viewBox="0 0 696.01 152.03"><defs><style>.cls-1{fill:#fff;}.cls-2{fill:none;}</style></defs><title>logo_white</title><g id="Layer_6" data-name="Layer 6"><path class="cls-1" d="M289.09,155.13H243.86l-10.73,30.95H216.55L259.87,65.93h13.95l42.42,120.15H299.65Zm-40.52-13.62h35.9L267,89.94h-.5Z" transform="translate(-31.99 -48.98)"/><path class="cls-1" d="M419.38,169.91q-4.29,6.68-14.89,12.29T377,187.81q-20.8,0-34.41-13.78t-13.62-35.65V113.63q0-21.87,13.12-35.65T375.89,64.2q20.05,0,31.69,10.69t11.31,27.19l-.17.5h-15.6q0-11-7.1-18.28T375.89,77q-13.78,0-22.2,10.32t-8.42,26.16v24.92q0,16,8.91,26.37A28.7,28.7,0,0,0,377,175.1q10.64,0,16.88-2.76a24.3,24.3,0,0,0,9.28-6.56V138.71H375.89V126h43.49Z" transform="translate(-31.99 -48.98)"/><path class="cls-1" d="M509.49,155.13H464.27l-10.73,30.95H437L480.28,65.93h13.95l42.42,120.15H520.06ZM469,141.52h35.9L487.38,89.94h-.5Z" transform="translate(-31.99 -48.98)"/><path class="cls-1" d="M583.6,154.56l2.72,10h.5l2.72-10,31-88.63h17.58L593.5,186.08H579.56L534.91,65.93h17.66Z" transform="translate(-31.99 -48.98)"/><path class="cls-1" d="M719.59,130.38H670.24v43H728v12.71H654V65.93H727.1V78.72H670.24v38.87h49.35Z" transform="translate(-31.99 -48.98)"/></g><g id="Layer_6-2" data-name="Layer 6"><path class="cls-2" d="M58.33,155.41l26.33-15.2L111,155.41v30.41L84.66,201l-26.33-15.2ZM111,94.59l26.33,15.2,26.33-15.2V64.19L137.33,49,111,64.19ZM32,109.8V140.2l26.33,15.2,26.33-15.2V109.8L58.33,94.59Zm105.33,0V140.2l26.33,15.2L190,140.2V109.8l-26.33-15.2Zm26.33,45.61-26.33-15.2L111,155.41v30.41L137.33,201l26.33-15.2ZM111,64.19,84.66,49,58.33,64.19V94.59l26.33,15.2L111,94.59Z" transform="translate(-31.99 -48.98)"/></g></svg>