<svg xmlns="http://www.w3.org/2000/svg" xmlns:xlink="http://www.w3.org/1999/xlink" viewBox="0 0 220 220"><defs><style>.cls-1{fill:#1e4e62;stroke:url(#linear-gradient);}.cls-1,.cls-2,.cls-3{stroke-miterlimit:10;stroke-width:20px;}.cls-2{fill:#27657e;stroke:url(#linear-gradient-2);}.cls-3{fill:#2e708e;stroke:url(#linear-gradient-3);}</style><linearGradient id="linear-gradient" x1="11.189" y1="110" x2="208.811" y2="110" gradientUnits="userSpaceOnUse"><stop offset="0" stop-color="#3a8376"/><stop offset="1" stop-color="#2c708d"/></linearGradient><linearGradient id="linear-gradient-2" x1="30.743" y1="110" x2="189.257" y2="110" gradientUnits="userSpaceOnUse"><stop offset="0" stop-color="#4e8f83"/><stop offset="1" stop-color="#407e98"/></linearGradient><linearGradient id="linear-gradient-3" x1="201.532" y1="371.103" x2="291.342" y2="371.103" gradientTransform="translate(-265.153 -130.227) rotate(-23.78)" gradientUnits="userSpaceOnUse"><stop offset="0" stop-color="#619b91"/><stop offset="1" stop-color="#568da3"/></linearGradient></defs><title>logo_only</title><g id="Layer_6" data-name="Layer 6"><path class="cls-1" d="M127.453,200.687H92.547L75.095,170.458l17.453-30.229h34.905l17.453,30.229ZM144.905,49.542,127.453,19.313H92.547L75.095,49.542,92.547,79.771h34.905ZM179.811,110H144.905l-17.453,30.229,17.453,30.229h34.905l17.453-30.229ZM75.095,49.542H40.189L22.736,79.771,40.189,110H75.095L92.547,79.771ZM22.736,140.229l17.453,30.229H75.095l17.453-30.229L75.095,110H40.189ZM127.453,79.771,144.905,110h34.905l17.453-30.229L179.811,49.542H144.905Z"/><path class="cls-2" d="M63.829,136.657l23.086-13.328L110,136.657v26.657L86.914,176.642,63.829,163.314ZM110,83.343l23.086,13.328,23.086-13.328V56.686L133.086,43.358,110,56.686ZM40.743,96.672v26.657l23.086,13.328,23.086-13.328V96.672L63.829,83.343Zm92.342,0v26.657l23.086,13.328,23.086-13.328V96.672L156.171,83.343Zm23.086,39.985-23.086-13.328L110,136.657v26.657l23.086,13.328,23.086-13.328ZM110,56.686,86.914,43.358,63.829,56.686V83.343L86.914,96.672,110,83.343Z"/><polygon class="cls-3" points="109.156 72.228 82.694 83.888 72.228 110.844 83.888 137.306 110.844 147.772 137.306 136.112 147.772 109.156 136.112 82.694 109.156 72.228"/></g></svg>