<svg id="Layer_1" data-name="Layer 1" xmlns="http://www.w3.org/2000/svg" viewBox="0 0 218.96 214.54"><defs><style>.cls-1{fill:none;stroke:#fff;stroke-miterlimit:10;stroke-width:20px;}</style></defs><title>logo_only_white</title><g id="Layer_6" data-name="Layer 6"><path class="cls-1" d="M43.68,148.29l33.16-19.14L110,148.29v38.29L76.84,205.72,43.68,186.58ZM110,71.71l33.16,19.14,33.16-19.14V33.42L143.16,14.28,110,33.42ZM10.52,90.86v38.29l33.16,19.14,33.16-19.14V90.86L43.68,71.71Zm132.64,0v38.29l33.16,19.14,33.16-19.14V90.86L176.32,71.71Zm33.16,57.43-33.16-19.14L110,148.29v38.29l33.16,19.14,33.16-19.14ZM110,33.42,76.84,14.28,43.68,33.42V71.71L76.84,90.86,110,71.71Z" transform="translate(-0.52 -2.73)"/></g></svg>